<?xml version="1.0" encoding="UTF-8" standalone="no"?>
<!-- Created with Inkscape (http://www.inkscape.org/) -->

<svg
   width="210mm"
   height="297mm"
   viewBox="0 0 210 297"
   version="1.1"
   id="svg5"
   inkscape:version="1.1 (c68e22c387, 2021-05-23)"
   sodipodi:docname="throphy.svg"
   xmlns:inkscape="http://www.inkscape.org/namespaces/inkscape"
   xmlns:sodipodi="http://sodipodi.sourceforge.net/DTD/sodipodi-0.dtd"
   xmlns="http://www.w3.org/2000/svg"
   xmlns:svg="http://www.w3.org/2000/svg">
  <sodipodi:namedview
     id="namedview7"
     pagecolor="#ffffff"
     bordercolor="#666666"
     borderopacity="1.0"
     inkscape:pageshadow="2"
     inkscape:pageopacity="0.0"
     inkscape:pagecheckerboard="0"
     inkscape:document-units="mm"
     showgrid="false"
     inkscape:zoom="1.0998546"
     inkscape:cx="155.4751"
     inkscape:cy="475.06279"
     inkscape:window-width="1649"
     inkscape:window-height="1081"
     inkscape:window-x="2174"
     inkscape:window-y="64"
     inkscape:window-maximized="0"
     inkscape:current-layer="g1109" />
  <defs
     id="defs2">
    <clipPath
       clipPathUnits="userSpaceOnUse"
       id="clipPath1043">
      <path
         d="M 0,566 H 800 V 0 H 0 Z"
         id="path1041" />
    </clipPath>
    <clipPath
       clipPathUnits="userSpaceOnUse"
       id="clipPath1113">
      <path
         d="M 0,566 H 800 V 0 H 0 Z"
         id="path1111" />
    </clipPath>
    <clipPath
       clipPathUnits="userSpaceOnUse"
       id="clipPath1176">
      <path
         d="M 0,566 H 800 V 0 H 0 Z"
         id="path1174" />
    </clipPath>
  </defs>
  <g
     inkscape:label="Layer 1"
     inkscape:groupmode="layer"
     id="layer1">
    <g
       id="g1029"
       inkscape:label="free-vector-flat-trophy-illustration"
       transform="matrix(0.35277777,0,0,-0.35277777,1775.6505,192.12371)">
      <g
         id="g1031"
         transform="translate(281.8032,71.3447)">
        <path
           d="M 0,0 V -18.345 H 234.992 V 0 L 134.093,41.932 h -33.196 z"
           style="fill:#fec901;fill-opacity:1;fill-rule:nonzero;stroke:none"
           id="path1033" />
      </g>
      <path
         d="M 415.896,83.139 H 382.7 v 122.736 h 33.196 z"
         style="fill:#fec901;fill-opacity:1;fill-rule:nonzero;stroke:none"
         id="path1035" />
      <g
         id="g1037">
        <g
           id="g1039"
           clip-path="url(#clipPath1043)">
          <g
             id="g1045"
             transform="translate(536.7539,512.5)">
            <path
               d="m 0,0 h -82.856 -111.078 -82.856 c -15.725,-244.601 122.737,-306.625 122.737,-306.625 h 14.718 1.88 14.718 c 0,0 138.461,62.024 122.737,306.625"
               style="fill:#fec901;fill-opacity:1;fill-rule:nonzero;stroke:none"
               id="path1047" />
          </g>
          <g
             id="g1049"
             transform="translate(379.7441,280.1289)">
            <path
               d="m 0,0 h 40.726 c 6.449,1.504 48.783,12.053 88.203,38.457 53.445,35.799 77.727,83.378 72.258,141.5 H -160.458 C -173.106,43.493 -13.078,3.06 0,0 M 42.615,-17.471 H -1.891 l -0.894,0.191 c -1.992,0.42 -49.34,10.677 -94.711,40.93 -61.194,40.806 -88.654,98.282 -79.408,166.22 l 1.029,7.558 h 392.476 l 1.026,-7.558 C 226.871,121.932 199.415,64.456 138.218,23.65 92.846,-6.603 45.503,-16.86 43.51,-17.28 Z"
               style="fill:#fec901;fill-opacity:1;fill-rule:nonzero;stroke:none"
               id="path1051" />
          </g>
          <g
             id="g1053"
             transform="translate(468.9219,484.5459)">
            <path
               d="M 0,0 H -15.024 -27.18 l 64.979,-64.981 c 0.983,8.127 1.758,16.419 2.294,24.887 z"
               style="fill:#fce055;fill-opacity:1;fill-rule:nonzero;stroke:none"
               id="path1055" />
          </g>
          <g
             id="g1057"
             transform="translate(503.0693,395.5161)">
            <path
               d="M 0,0 C 0.687,3.716 1.317,7.48 1.897,11.28 L -75.851,89.03 H -89.029 Z"
               style="fill:#fce055;fill-opacity:1;fill-rule:nonzero;stroke:none"
               id="path1059" />
          </g>
          <path
             d="M 281.803,71.345 H 516.795 V 53 H 281.803 Z"
             style="fill:#e5af03;fill-opacity:1;fill-rule:nonzero;stroke:none"
             id="path1061" />
          <path
             d="m 334.801,71.345 h -4.368 V 53 h 4.368 z"
             style="fill:#fce055;fill-opacity:1;fill-rule:nonzero;stroke:none"
             id="path1063" />
          <path
             d="m 301.605,53 h 20.966 v 18.345 h -20.966 z"
             style="fill:#fce055;fill-opacity:1;fill-rule:nonzero;stroke:none"
             id="path1065" />
          <g
             id="g1067"
             transform="translate(295.9062,484.4893)">
            <path
               d="m 0,0 c 0,0 1.129,-11.739 2.824,-29.348 0.573,-4.387 0.935,-9.154 1.593,-14.167 0.652,-5.014 1.185,-10.31 1.981,-15.756 0.71,-5.46 1.541,-11.077 2.408,-16.779 0.771,-5.721 2.006,-11.437 2.895,-17.222 1.026,-5.756 2.366,-11.434 3.457,-17.082 1.38,-5.558 2.609,-11.081 4.028,-16.347 1.572,-5.203 2.848,-10.342 4.416,-15.074 1.626,-4.714 3.165,-9.171 4.585,-13.285 1.716,-3.971 3.18,-7.681 4.538,-10.951 1.237,-3.346 2.866,-5.928 3.934,-8.239 2.242,-4.578 3.524,-7.194 3.524,-7.194 l 0.164,-0.333 c 0.846,-1.728 0.131,-3.816 -1.597,-4.663 -1.562,-0.766 -3.418,-0.254 -4.385,1.127 0,0 -1.755,2.496 -4.824,6.863 -0.757,1.108 -1.597,2.334 -2.51,3.669 -0.457,0.669 -0.931,1.366 -1.425,2.09 -0.416,0.761 -0.847,1.547 -1.293,2.361 -1.767,3.266 -3.832,6.933 -5.961,11.005 -1.887,4.157 -3.883,8.688 -5.935,13.52 -1.934,4.863 -3.652,10.091 -5.56,15.473 -1.687,5.436 -3.182,11.113 -4.834,16.859 -1.303,5.808 -2.697,11.71 -3.852,17.641 -1.056,5.943 -2.257,11.88 -2.94,17.775 -0.826,5.881 -1.595,11.672 -2.01,17.306 -1.119,11.239 -1.44,21.774 -1.559,30.789 -0.024,9.024 0.23,16.534 0.621,21.796 0.147,2.623 0.37,4.711 0.505,6.131 0.147,1.4 0.223,2.148 0.223,2.148 0.202,1.926 1.927,3.325 3.853,3.124 1.689,-0.176 2.972,-1.522 3.127,-3.15 z"
               style="fill:#fce055;fill-opacity:1;fill-rule:nonzero;stroke:none"
               id="path1069" />
          </g>
        </g>
        <g
           id="g1099"
           inkscape:label="free-vector-flat-trophy-illustration"
           transform="translate(-5163.4236,-141.25135)">
          <g
             id="g1101"
             transform="translate(281.8032,71.3447)">
            <path
               d="M 0,0 V -18.345 H 234.992 V 0 L 134.093,41.932 h -33.196 z"
               style="fill:#fec901;fill-opacity:1;fill-rule:nonzero;stroke:none"
               id="path1103" />
          </g>
          <path
             d="M 415.896,83.139 H 382.7 v 122.736 h 33.196 z"
             style="fill:#fec901;fill-opacity:1;fill-rule:nonzero;stroke:none"
             id="path1105" />
          <g
             id="g1107">
            <g
               id="g1109"
               clip-path="url(#clipPath1113)">
              <g
                 id="g1115"
                 transform="translate(536.7539,512.5)">
                <path
                   d="m 0,0 h -82.856 -111.078 -82.856 c -15.725,-244.601 122.737,-306.625 122.737,-306.625 h 14.718 1.88 14.718 c 0,0 138.461,62.024 122.737,306.625"
                   style="fill:#fec901;fill-opacity:1;fill-rule:nonzero;stroke:none"
                   id="path1117" />
              </g>
              <g
                 id="g1119"
                 transform="translate(379.7441,280.1289)">
                <path
                   d="m 0,0 h 40.726 c 6.449,1.504 48.783,12.053 88.203,38.457 53.445,35.799 77.727,83.378 72.258,141.5 H -160.458 C -173.106,43.493 -13.078,3.06 0,0 M 42.615,-17.471 H -1.891 l -0.894,0.191 c -1.992,0.42 -49.34,10.677 -94.711,40.93 -61.194,40.806 -88.654,98.282 -79.408,166.22 l 1.029,7.558 h 392.476 l 1.026,-7.558 C 226.871,121.932 199.415,64.456 138.218,23.65 92.846,-6.603 45.503,-16.86 43.51,-17.28 Z"
                   style="fill:#fec901;fill-opacity:1;fill-rule:nonzero;stroke:none"
                   id="path1121" />
              </g>
              <g
                 id="g1123"
                 transform="translate(475.74098,502.27552)">
                <path
                   d="M 0,0 H -15.024 -27.18 l 64.979,-64.981 c 0.983,8.127 1.758,16.419 2.294,24.887 z"
                   style="fill:#fce055;fill-opacity:1;fill-rule:nonzero;stroke:none"
                   id="path1125" />
              </g>
              <g
                 id="g1127"
                 transform="translate(505.79693,413.24572)">
                <path
                   d="M 0,0 C 0.687,3.716 1.317,7.48 1.897,11.28 L -75.851,89.03 H -89.029 Z"
                   style="fill:#fce055;fill-opacity:1;fill-rule:nonzero;stroke:none"
                   id="path1129" />
              </g>
              <path
                 d="M 281.803,71.345 H 516.795 V 53 H 281.803 Z"
                 style="fill:#e5af03;fill-opacity:1;fill-rule:nonzero;stroke:none"
                 id="path1131" />
              <path
                 d="m 334.801,71.345 h -4.368 V 53 h 4.368 z"
                 style="fill:#fce055;fill-opacity:1;fill-rule:nonzero;stroke:none"
                 id="path1133" />
              <path
                 d="m 301.605,53 h 20.966 v 18.345 h -20.966 z"
                 style="fill:#fce055;fill-opacity:1;fill-rule:nonzero;stroke:none"
                 id="path1135" />
            </g>
          </g>
        </g>
        <g
           id="g1172"
           clip-path="url(#clipPath1176)"
           transform="matrix(0.43047196,0,0,0.43047196,-4932.0463,109.19626)">
          <g
             id="g1178"
             transform="translate(175.7671,331.6187)">
            <path
               d="m 0,0 c 0,0 -7.447,-62.279 -7.37,-72.533 0.077,-10.255 2.423,-30.321 14.21,-46.392 11.786,-16.072 46.577,-63.678 128.311,-77.414 81.735,-13.738 167.06,8.697 217.776,30.289 50.716,21.592 85.647,59.622 90.399,78.512 4.748,18.891 8.432,65.948 12.056,92.918 C 431.537,10.043 0,0 0,0"
               style="fill:#aa3c2c;fill-opacity:1;fill-rule:nonzero;stroke:none"
               id="path1180" />
          </g>
          <g
             id="g1182"
             transform="translate(383.3809,322.874)">
            <path
               d="m 0,0 c 4.773,-11.382 6.883,-23.219 9.423,-34.765 6.7,-30.396 13.933,-60.961 -44.01,-62.026 -26.214,-0.48 -52.765,7.254 -73.82,19.116 -19.195,10.815 -48.078,32.532 -55.087,49.251 -0.679,1.617 -1.375,3.257 -2.068,4.91 -7.935,18.924 -15.642,39.8 4.207,54.659 18.678,13.999 56.398,24.68 89.219,23.025 10.651,-0.54 20.811,-2.376 29.613,-5.82 C -26.791,42.174 -10.541,19.731 -4.196,8.561 -2.593,5.746 -1.21,2.887 0,0"
               style="fill:#dd6256;fill-opacity:1;fill-rule:nonzero;stroke:none"
               id="path1184" />
          </g>
          <g
             id="g1186"
             transform="translate(583.4111,306.1973)">
            <path
               d="m 0,0 c -15.729,-21.256 -44.698,-47.432 -82.113,-49.715 -22.743,-1.395 -65.155,26.442 -79.494,37.984 -15.495,12.465 -30.883,34.027 -38.412,51.978 -1.632,3.898 -2.896,7.622 -3.708,11.049 -6.988,29.402 66.91,41.839 93.385,49.058 38.491,10.479 89.501,13.758 116.608,-17.521 3.668,-4.231 6.41,-8.715 8.354,-13.351 C 24.401,46.16 14.001,18.94 0,0"
               style="fill:#dd6256;fill-opacity:1;fill-rule:nonzero;stroke:none"
               id="path1188" />
          </g>
          <g
             id="g1190"
             transform="translate(506.292,360.8193)">
            <path
               d="M 0,0 C 4.494,-10.716 20.388,-17.499 35.522,-15.155 50.659,-12.81 59.289,-2.228 54.796,8.488 50.298,19.218 34.387,25.999 19.252,23.652 4.117,21.308 -4.497,10.73 0,0"
               style="fill:#dd6256;fill-opacity:1;fill-rule:nonzero;stroke:none"
               id="path1192" />
          </g>
          <g
             id="g1194"
             transform="translate(506.292,360.8193)">
            <path
               d="M 0,0 C 4.494,-10.716 20.388,-17.499 35.522,-15.155 50.659,-12.81 59.289,-2.228 54.796,8.488 50.298,19.218 34.387,25.999 19.252,23.652 4.117,21.308 -4.497,10.73 0,0"
               style="fill:#d6d3d4;fill-opacity:1;fill-rule:nonzero;stroke:none"
               id="path1196" />
          </g>
          <g
             id="g1198"
             transform="translate(191.1313,305.5312)">
            <path
               d="m 0,0 c 26.241,-62.586 119.721,-112.642 252.305,-85.801 136.014,27.549 196.225,94.239 173.277,148.96 -0.395,0.936 -0.813,1.875 -1.254,2.806 -22.466,47.318 -66.474,61.197 -124.448,55.043 C 241.903,114.854 203.187,72.166 149.165,81.667 95.156,91.185 -24.271,74.559 -3.041,8.229 -2.153,5.465 -1.142,2.723 0,0 m 255.776,-92.581 c -81.985,-16.61 -140.842,-3.287 -175.791,10.809 -43.434,17.534 -75.277,46.044 -89.629,80.275 -1.2,2.865 -2.287,5.801 -3.208,8.709 -7.379,23.067 0.296,43.157 22.243,58.086 34.682,23.613 100.462,30.421 141.512,23.201 26.478,-4.653 49.352,5.468 75.836,17.203 21.551,9.533 43.824,19.403 70.884,22.274 67.986,7.229 113.809,-13.052 136.246,-60.255 0.477,-1.009 0.926,-2.036 1.352,-3.054 C 447.769,34.741 437.656,2.52 406.744,-26.031 374.117,-56.18 321.9,-79.193 255.776,-92.581"
               style="fill:#dd6256;fill-opacity:1;fill-rule:nonzero;stroke:none"
               id="path1200" />
          </g>
          <g
             id="g1202"
             transform="translate(520.1787,367.0752)">
            <path
               d="m 0,0 c 0,-0.043 0.002,-0.088 0.004,-0.134 0.008,-0.268 0.031,-0.538 0.071,-0.81 0.008,-0.046 0.016,-0.093 0.022,-0.139 0.048,-0.275 0.104,-0.553 0.183,-0.834 0.01,-0.031 0.02,-0.064 0.03,-0.098 0.086,-0.294 0.187,-0.589 0.311,-0.883 2.341,-5.582 10.557,-9.129 18.366,-7.92 0.337,0.053 0.665,0.116 0.989,0.183 0.077,0.016 0.151,0.031 0.226,0.047 0.318,0.071 0.629,0.148 0.933,0.233 0.031,0.008 0.063,0.02 0.094,0.027 0.279,0.079 0.55,0.166 0.815,0.257 0.066,0.022 0.136,0.045 0.201,0.069 0.283,0.1 0.56,0.207 0.828,0.319 0.049,0.022 0.097,0.043 0.146,0.063 0.236,0.105 0.468,0.211 0.692,0.324 0.053,0.025 0.107,0.051 0.157,0.077 0.251,0.13 0.495,0.264 0.732,0.406 0.048,0.027 0.095,0.057 0.142,0.086 0.205,0.127 0.407,0.257 0.599,0.391 0.04,0.027 0.081,0.053 0.121,0.083 0.217,0.153 0.424,0.313 0.623,0.477 0.043,0.035 0.084,0.071 0.126,0.106 0.182,0.154 0.359,0.312 0.525,0.474 0.021,0.019 0.044,0.039 0.066,0.061 0.18,0.175 0.348,0.359 0.509,0.544 0.038,0.041 0.073,0.085 0.108,0.126 0.16,0.189 0.315,0.382 0.454,0.58 h 0.002 c 0.14,0.197 0.266,0.4 0.389,0.605 0.027,0.047 0.055,0.094 0.08,0.142 0.116,0.203 0.224,0.41 0.319,0.619 0.011,0.022 0.019,0.045 0.029,0.067 0.087,0.193 0.161,0.39 0.23,0.592 0.018,0.047 0.033,0.096 0.049,0.144 0.069,0.215 0.131,0.433 0.18,0.654 0.007,0.038 0.013,0.075 0.021,0.112 0.04,0.196 0.071,0.395 0.095,0.594 0.148,1.24 -0.026,2.536 -0.571,3.837 C 26.555,7.063 18.339,10.61 10.512,9.397 4.456,8.461 0.441,4.939 0.031,0.805 0.006,0.541 -0.004,0.271 0,0"
               style="fill:#dd6256;fill-opacity:1;fill-rule:nonzero;stroke:none"
               id="path1204" />
          </g>
          <g
             id="g1206"
             transform="translate(473.2822,246.291)">
            <path
               d="m 0,0 c 1.248,-2.972 0.278,-5.418 -3.895,-6.811 -18.117,-6.035 -56.027,-12.953 -59.169,-5.459 -0.265,0.631 -0.283,1.365 -0.022,2.208 3.019,9.857 -4.263,27.222 2.92,35.308 0.795,0.889 1.883,1.506 3.212,1.91 C -43.47,31.171 -4.864,11.596 0,0"
               style="fill:#dd6256;fill-opacity:1;fill-rule:nonzero;stroke:none"
               id="path1208" />
          </g>
          <g
             id="g1210"
             transform="translate(410.2178,234.0215)">
            <path
               d="m 0,0 c 3.143,-7.494 41.053,-0.576 59.17,5.459 4.173,1.393 5.143,3.839 3.896,6.811 C 58.202,23.865 19.595,43.44 6.11,39.426 4.781,39.023 3.693,38.404 2.898,37.516 -4.284,29.43 2.997,12.064 -0.021,2.208 -0.282,1.364 -0.265,0.631 0,0 m -61.424,-7.938 c 57.945,1.065 50.71,31.629 44.01,62.026 -2.54,11.546 -4.649,23.382 -9.423,34.765 -1.21,2.886 -2.593,5.745 -4.196,8.561 -6.344,11.169 -22.595,33.613 -38.327,39.788 -8.802,3.445 -18.962,5.28 -29.613,5.821 -32.821,1.654 -70.541,-9.024 -89.219,-23.025 -19.849,-14.859 -12.141,-35.736 -4.207,-54.66 0.693,-1.652 1.389,-3.293 2.068,-4.909 7.009,-16.719 35.893,-38.437 55.087,-49.251 21.056,-11.863 47.606,-19.597 73.82,-19.116 M 62.852,172.529 c -26.474,-7.218 -100.373,-19.655 -93.386,-49.057 0.813,-3.428 2.076,-7.152 3.711,-11.05 7.526,-17.95 22.915,-39.512 38.409,-51.978 14.34,-11.542 56.751,-39.379 79.494,-37.983 37.415,2.283 66.387,28.458 82.113,49.715 14.001,18.94 24.402,46.159 14.62,69.482 -1.944,4.636 -4.686,9.121 -8.354,13.351 -27.106,31.279 -78.116,28 -116.607,17.52 M 33.219,-14.291 C -99.365,-41.132 -192.845,8.924 -219.086,71.51 c -1.142,2.722 -2.153,5.465 -3.041,8.229 -21.231,66.33 98.196,82.955 152.205,73.438 54.022,-9.502 92.738,33.187 150.716,39.341 57.974,6.154 101.981,-7.725 124.447,-55.043 0.442,-0.931 0.86,-1.87 1.254,-2.807 C 229.443,79.948 169.232,13.258 33.219,-14.291"
               style="fill:#d6d3d4;fill-opacity:1;fill-rule:nonzero;stroke:none"
               id="path1212" />
          </g>
        </g>
      </g>
    </g>
  </g>
</svg>
